<svg height="512pt" viewBox="0 0 512 512" width="512pt" xmlns="http://www.w3.org/2000/svg"><path d="m437 0h-437v30h287c107.519531 0 195 89.480469 195 197v238.113281l-88.347656-73.113281h28.347656v-120h-270v120h28.347656l-58.347656 48.285156v-78.285156h-77v-60h15v-90c0-16.570312-13.429688-30-30-30s-30 13.429688-30 30v90h15v60h-15v150h512v-435c0-41.351562-33.648438-77-75-77zm-90 295.789062 21.210938 21.210938-21.210938 21.210938-21.210938-21.210938zm-120 0 21.210938 21.210938-21.210938 21.210938-21.210938-21.210938zm119.589844 96.210938 36.25 30h-191.679688l36.25-30zm-224.589844 87.230469 32.90625-27.230469h264.1875l36.25 30h-333.34375zm0 0"/><path d="m302 182h120v60h-120zm0 0"/><path d="m152 182h120v60h-120zm0 0"/><path d="m347 92h-120c-36.214844 0-66.511719 25.808594-73.480469 60h266.960938c-6.96875-34.191406-37.265625-60-73.480469-60zm0 0"/><path d="m60 122c0 16.570312-13.429688 30-30 30s-30-13.429688-30-30 13.429688-30 30-30 30 13.429688 30 30zm0 0"/></svg>